<svg viewBox="0 0 1920 1920" version="1.1" xmlns="http://www.w3.org/2000/svg"><path d="M1682.86,1935h164.8V1748.72H1980V1578.57H102v170.15H250.3V1935H416V1748.72H1682.86V1935ZM188.051,1508.49H709.284v-418.7H839.792v418.7H946.206v-418.7H1078.72v418.7h106.42v-418.7h128.5v418.7h108.42v-418.7h128.5v418.7h110.43v-418.7h128.5v418.7h105.92v-597.6H188.051v597.6ZM1895.41,793.669V194H188.051V793.669H349.884V285.906H476.377V793.669H592.83V285.906H717.315V793.669h82.321V285.906H924.12V793.669h971.29ZM980,313l98-28,126,450-102,27ZM567,1072l102,39L527,1475l-116-47Z" stroke="none" stroke-width="1" fill-rule="evenodd"/></svg>