<?xml version="1.0" encoding="utf-8"?>
<!-- Generator: Adobe Illustrator 27.0.0, SVG Export Plug-In . SVG Version: 6.00 Build 0)  -->
<svg version="1.1" id="Layer_1" xmlns="http://www.w3.org/2000/svg" xmlns:xlink="http://www.w3.org/1999/xlink" x="0px" y="0px"
	 viewBox="0 0 543.3 617" style="enable-background:new 0 0 543.3 617;" xml:space="preserve">
<path class="st0" d="M518.4,134.7L296.6,6.7c-15.4-8.9-34.4-8.9-49.8,0l-221.8,128C9.5,143.6,0,160,0,177.9V434
	c0,17.8,9.5,34.3,24.9,43.2l221.8,128c15.4,8.9,34.4,8.9,49.8,0l221.8-128c15.4-8.9,24.9-25.4,24.9-43.2V177.9
	C543.3,160,533.8,143.6,518.4,134.7z M352.3,462.4c-21.2,9.4-44.2,14.2-67.4,14.2c-26.3,0-50.5-4.1-72.7-12.3
	c-21.4-7.7-40.9-19.8-57.5-35.4C138.6,413.6,126,395,117,373.2s-13.5-46.2-13.5-73.1c0-26.9,4.5-51.3,13.5-73.1
	c9-21.8,21.6-40.4,37.7-55.8c16.1-15.3,35.3-27.1,57.5-35.4c22.2-8.2,46.4-12.4,72.7-12.3c9.9,0,19.8,0.9,29.6,2.6
	c10.4,1.8,20.6,4.5,30.4,8.3c10.2,3.9,19.8,9,28.7,15.2c9.3,6.5,17.7,14.3,24.7,23.3l-57,46.5c-7.2-8.8-16.4-15.8-26.8-20.4
	c-10.6-4.7-22.9-7.1-36.8-7.1c-26.5-0.3-51.9,10.9-69.6,30.6c-8.9,10-15.9,21.7-20.4,34.4c-5,13.9-7.5,28.5-7.3,43.2
	c0,15.8,2.5,30.3,7.3,43.5c4.6,12.5,11.4,24.1,20.2,34.2c8.4,9.5,18.6,17.2,30.2,22.6c11.7,5.4,24.4,8.2,37.3,8.1
	c15.2,0,28.6-3.2,40.4-9.5c11.7-6.3,21.7-15.5,29-26.6l61.7,46.1C392.8,437.7,374.1,453,352.3,462.4z"/>
</svg>
